<?xml version="1.0" standalone="no"?>
<!DOCTYPE svg PUBLIC "-//W3C//DTD SVG 20010904//EN"
 "http://www.w3.org/TR/2001/REC-SVG-20010904/DTD/svg10.dtd">
<svg version="1.0" xmlns="http://www.w3.org/2000/svg"
 width="394.000000pt" height="395.000000pt" viewBox="0 0 394.000000 395.000000"
 preserveAspectRatio="xMidYMid meet">

<g transform="translate(0.000000,395.000000) scale(0.100000,-0.100000)"
fill="#000000" stroke="none">
<path d="M1634 3381 c-129 -23 -217 -52 -328 -109 -295 -151 -522 -423 -610
-732 l-24 -85 -70 -26 c-173 -64 -322 -186 -431 -353 -170 -261 -189 -622 -47
-903 53 -106 76 -137 164 -227 134 -136 295 -220 489 -255 33 -6 225 -11 454
-12 347 -1 400 1 427 15 62 32 87 107 57 169 -34 73 -24 71 -470 78 -442 6
-464 9 -590 69 -174 84 -298 234 -340 413 -17 74 -19 225 -4 299 47 223 250
429 475 481 113 27 126 42 154 176 75 368 295 609 655 717 79 24 108 27 235
28 157 1 236 -15 365 -72 206 -91 393 -288 469 -495 27 -72 47 -81 206 -89
149 -7 225 -25 330 -78 184 -93 324 -264 392 -480 19 -63 23 -95 22 -205 -1
-118 -4 -138 -33 -225 -17 -52 -40 -111 -51 -130 l-19 -35 -1 47 c0 28 -6 53
-15 62 -17 16 -105 46 -139 46 -16 1 -30 19 -58 78 -21 43 -38 81 -38 85 0 5
18 38 40 74 22 37 40 71 40 76 0 5 -39 49 -87 98 -61 63 -94 89 -111 89 -13 0
-53 -16 -88 -36 l-65 -36 -67 28 c-37 15 -70 30 -74 34 -5 3 -17 42 -29 85
-11 44 -26 83 -32 87 -15 10 -258 10 -273 0 -14 -9 -44 -94 -44 -125 0 -35
-19 -52 -89 -83 l-64 -28 -68 37 c-38 20 -77 37 -87 37 -29 0 -192 -160 -192
-189 0 -13 16 -53 36 -90 l36 -66 -37 -76 c-36 -77 -36 -77 -83 -84 -26 -4
-62 -13 -79 -20 -33 -14 -33 -14 -33 -84 l0 -71 -70 0 -71 0 -102 108 c-57 59
-129 135 -162 170 l-59 63 335 335 335 335 39 -17 c93 -39 213 -11 275 64 127
153 20 391 -176 392 -89 0 -153 -32 -199 -102 -35 -53 -50 -123 -38 -180 l10
-46 -300 -298 c-187 -187 -301 -294 -304 -286 -12 32 -72 87 -118 108 -94 44
-183 27 -261 -51 -58 -58 -81 -123 -70 -200 21 -138 180 -237 306 -190 25 9
52 18 60 21 10 3 77 -62 188 -181 l174 -185 103 0 c77 0 106 -4 114 -14 7 -8
43 -22 79 -32 l67 -17 37 -76 36 -76 -34 -67 c-19 -37 -34 -76 -34 -85 0 -10
42 -60 94 -112 l93 -93 80 41 80 40 59 -24 c33 -14 64 -25 71 -25 7 0 15 -17
18 -38 4 -20 14 -62 23 -92 l17 -55 142 -3 c164 -3 150 -12 179 111 l18 77 47
14 c26 8 57 20 69 26 18 9 31 6 83 -23 101 -56 99 -56 168 10 33 31 74 78 91
104 20 32 55 63 107 97 476 311 622 922 335 1404 -58 97 -217 264 -313 328
-142 95 -308 154 -466 166 l-81 7 -25 46 c-64 122 -231 308 -355 397 -250 178
-565 248 -870 195z m574 -806 c38 -32 47 -67 27 -109 -36 -75 -139 -76 -170
-2 -39 93 67 175 143 111z m-1048 -777 c46 -32 57 -68 33 -115 -43 -89 -164
-68 -180 30 -5 32 -1 41 30 72 41 41 70 44 117 13z m1635 -139 c28 -11 72 -36
100 -57 182 -138 216 -377 80 -560 -49 -65 -105 -105 -192 -138 -91 -34 -208
-31 -296 9 -80 36 -167 122 -203 200 -26 55 -29 73 -29 162 1 128 24 191 102
275 114 124 284 166 438 109z"/>
</g>
</svg>
